<?xml version="1.0" encoding="utf-8"?>
<!-- Generator: Adobe Illustrator 16.0.0, SVG Export Plug-In . SVG Version: 6.00 Build 0)  -->
<!DOCTYPE svg PUBLIC "-//W3C//DTD SVG 1.1//EN" "http://www.w3.org/Graphics/SVG/1.1/DTD/svg11.dtd">
<svg version="1.1" id="Layer_1" xmlns="http://www.w3.org/2000/svg" xmlns:xlink="http://www.w3.org/1999/xlink" x="0px" y="0px"
	 width="900px" height="564px" viewBox="22.5 662.5 900 564" enable-background="new 22.5 662.5 900 564" xml:space="preserve">
<rect x="1301.818" y="681.424" width="332.982" height="319.483"/>
<text transform="matrix(1 0 0 1 -818.1631 -1274.252)" font-family="'Avenir-Medium'" font-size="153" letter-spacing="-4">Montreel</text>
<text transform="matrix(1 0 0 1 -757.3145 -910.2852)" font-family="'Avenir-Medium'" font-size="153" letter-spacing="-4">Montreel</text>
<g>
	<g>
		<path d="M-647.971-686.436h21.879l34.425,82.008h0.612l34.119-82.008h21.879v108.324h-14.688v-89.044h-0.306l-36.566,89.044
			h-9.792l-36.567-89.044h-0.306v89.044h-14.688v-108.324H-647.971z"/>
		<path d="M-522.207-614.371c0-5.303,0.995-10.252,2.984-14.842c1.988-4.59,4.717-8.619,8.186-12.088
			c3.467-3.465,7.547-6.195,12.239-8.186c4.691-1.988,9.74-2.982,15.147-2.982c5.405,0,10.454,0.994,15.147,2.982
			c4.689,1.99,8.771,4.721,12.24,8.186c3.466,3.469,6.195,7.498,8.186,12.088c1.988,4.59,2.982,9.539,2.982,14.842
			c0,5.305-0.994,10.277-2.982,14.916c-1.99,4.643-4.72,8.672-8.186,12.088c-3.469,3.418-7.551,6.119-12.24,8.109
			c-4.693,1.988-9.742,2.982-15.147,2.982c-5.407,0-10.456-0.994-15.147-2.982c-4.692-1.99-8.772-4.691-12.239-8.109
			c-3.469-3.416-6.197-7.445-8.186-12.088C-521.212-604.094-522.207-609.066-522.207-614.371z M-507.518-614.371
			c0,3.672,0.559,7.064,1.682,10.174c1.122,3.113,2.702,5.764,4.744,7.955c2.038,2.195,4.537,3.928,7.497,5.203
			c2.957,1.275,6.271,1.912,9.944,1.912c3.672,0,6.985-0.637,9.945-1.912c2.957-1.275,5.455-3.008,7.497-5.203
			c2.039-2.19,3.619-4.842,4.742-7.955c1.121-3.108,1.684-6.502,1.684-10.174s-0.562-7.062-1.684-10.176
			c-1.123-3.109-2.703-5.76-4.742-7.955c-2.042-2.193-4.54-3.926-7.497-5.203c-2.96-1.273-6.273-1.912-9.945-1.912
			c-3.672,0-6.987,0.639-9.944,1.912c-2.96,1.277-5.459,3.01-7.497,5.203c-2.042,2.195-3.622,4.846-4.744,7.955
			C-506.959-621.434-507.518-618.043-507.518-614.371z"/>
		<path d="M-434.69-650.632h13.77v11.167h0.307c1.732-3.875,4.742-7.012,9.025-9.408c4.285-2.396,9.23-3.595,14.842-3.595
			c3.467,0,6.809,0.535,10.021,1.604c3.213,1.072,6.018,2.73,8.414,4.972c2.396,2.246,4.309,5.127,5.738,8.645
			c1.428,3.52,2.143,7.678,2.143,12.471v46.664h-13.771v-42.84c0-3.365-0.459-6.246-1.377-8.645
			c-0.918-2.395-2.141-4.334-3.672-5.814c-1.529-1.477-3.289-2.547-5.277-3.213c-1.99-0.662-4.055-0.994-6.197-0.994
			c-2.855,0-5.508,0.459-7.955,1.377c-2.449,0.918-4.59,2.371-6.426,4.361c-1.836,1.988-3.266,4.514-4.285,7.574
			c-1.02,3.059-1.529,6.682-1.529,10.861v37.332h-13.77L-434.69-650.632L-434.69-650.632z"/>
		<path d="M-317.647-638.699h-19.736v32.896c0,2.043,0.051,4.055,0.152,6.045c0.102,1.988,0.484,3.773,1.148,5.354
			c0.662,1.584,1.684,2.857,3.061,3.826c1.377,0.971,3.389,1.453,6.043,1.453c1.631,0,3.312-0.152,5.049-0.459
			c1.732-0.307,3.312-0.865,4.742-1.684v12.547c-1.633,0.918-3.748,1.555-6.348,1.912c-2.602,0.355-4.617,0.535-6.045,0.535
			c-5.305,0-9.408-0.74-12.316-2.219c-2.906-1.477-5.049-3.389-6.426-5.736c-1.377-2.346-2.195-4.973-2.447-7.879
			c-0.256-2.908-0.383-5.84-0.383-8.799v-37.791h-15.912v-11.933h15.912v-20.349h13.77v20.349h19.736V-638.699L-317.647-638.699z"/>
		<path d="M-306.784-650.632h13.77v11.167h0.307c0.918-1.936,2.143-3.695,3.672-5.277c1.529-1.58,3.236-2.932,5.125-4.055
			c1.887-1.121,3.953-2.013,6.197-2.677c2.242-0.662,4.486-0.994,6.732-0.994c2.242,0,4.283,0.307,6.119,0.918l-0.611,14.839
			c-1.123-0.305-2.246-0.559-3.367-0.764c-1.123-0.203-2.244-0.307-3.365-0.307c-6.732,0-11.883,1.889-15.453,5.662
			c-3.572,3.773-5.355,9.639-5.355,17.594v36.414h-13.77L-306.784-650.632L-306.784-650.632z"/>
		<path d="M-249.409-609.322c0,3.162,0.689,6.043,2.066,8.646c1.377,2.6,3.188,4.818,5.432,6.654
			c2.242,1.836,4.844,3.266,7.803,4.285c2.957,1.021,6.018,1.529,9.18,1.529c4.285,0,8.006-0.994,11.17-2.982
			c3.16-1.99,6.066-4.615,8.721-7.881l10.404,7.957c-7.65,9.896-18.361,14.84-32.131,14.84c-5.713,0-10.889-0.971-15.529-2.906
			c-4.643-1.938-8.568-4.613-11.781-8.033c-3.213-3.416-5.688-7.443-7.42-12.086c-1.736-4.641-2.602-9.664-2.602-15.07
			c0-5.406,0.941-10.428,2.83-15.07c1.887-4.641,4.488-8.67,7.805-12.088c3.312-3.416,7.268-6.094,11.857-8.033
			c4.59-1.935,9.586-2.906,14.994-2.906c6.426,0,11.857,1.123,16.293,3.365c4.438,2.246,8.084,5.178,10.939,8.799
			s4.92,7.703,6.197,12.24c1.273,4.539,1.912,9.156,1.912,13.846v4.896L-249.409-609.322L-249.409-609.322z M-205.956-620.338
			c-0.104-3.061-0.588-5.865-1.453-8.416c-0.869-2.549-2.168-4.768-3.902-6.656c-1.736-1.885-3.9-3.365-6.502-4.436
			c-2.602-1.072-5.637-1.607-9.104-1.607c-3.367,0-6.453,0.639-9.256,1.912c-2.807,1.277-5.18,2.934-7.115,4.973
			c-1.939,2.043-3.443,4.311-4.514,6.809c-1.07,2.502-1.607,4.973-1.607,7.422L-205.956-620.338L-205.956-620.338z"/>
		<path d="M-171.226-609.322c0,3.162,0.688,6.043,2.064,8.646c1.379,2.6,3.188,4.818,5.432,6.654s4.844,3.266,7.805,4.285
			c2.957,1.021,6.016,1.529,9.18,1.529c4.283,0,8.006-0.994,11.168-2.982c3.16-1.99,6.068-4.615,8.721-7.881l10.404,7.957
			c-7.65,9.896-18.359,14.84-32.129,14.84c-5.715,0-10.891-0.971-15.529-2.906c-4.643-1.938-8.568-4.613-11.781-8.033
			c-3.213-3.416-5.688-7.443-7.422-12.086c-1.734-4.641-2.6-9.664-2.6-15.07c0-5.406,0.941-10.428,2.83-15.07
			c1.887-4.641,4.486-8.67,7.803-12.088c3.314-3.416,7.268-6.094,11.857-8.033c4.59-1.935,9.586-2.906,14.994-2.906
			c6.426,0,11.857,1.123,16.295,3.365c4.438,2.246,8.082,5.178,10.939,8.799c2.854,3.621,4.92,7.703,6.195,12.24
			c1.275,4.539,1.914,9.156,1.914,13.846v4.896L-171.226-609.322L-171.226-609.322z M-127.774-620.338
			c-0.102-3.061-0.588-5.865-1.453-8.416c-0.867-2.549-2.168-4.768-3.9-6.656c-1.736-1.885-3.902-3.365-6.504-4.436
			c-2.6-1.072-5.637-1.607-9.104-1.607c-3.365,0-6.451,0.639-9.256,1.912c-2.807,1.277-5.178,2.934-7.115,4.973
			c-1.938,2.043-3.441,4.311-4.514,6.809c-1.07,2.502-1.605,4.973-1.605,7.422L-127.774-620.338L-127.774-620.338z"/>
		<path d="M-102.376-693.779h13.771v115.667h-13.771V-693.779L-102.376-693.779z"/>
	</g>
	<g>
		<g>
			<g>
				<path d="M-696.806-611.438c-3.399-7.941-6.066-9.959-7.778-10.787c-1.127-0.543-2.619-1.076-4.363-1.51
					c7.582-3.166,10.387-9.705,10.434-9.816c0.19-0.471,0.289-0.971,0.289-1.477c0-4.008-3.93-15.363-11.035-25.421
					c-6.85-9.699-19.036-21.778-38.195-24.249c-0.04-0.004-0.078-0.004-0.117-0.01c-3.353-8.833-7.184-13.306-9.486-15.363v-6.763
					c0-2.152-1.744-3.898-3.897-3.898c-2.153,0-3.897,1.745-3.897,3.898v7.64c-2.378,4.201-4.125,8.164-5.395,11.771
					c-1.271-7.388-3.715-17.745-8.359-28.196c-11.555-25.998-31.119-39.739-56.58-39.739c-30.654,0-49.683,12.104-60.246,22.257
					c-11.525,11.079-15.704,22.164-15.876,22.631c-0.371,1.006-0.312,2.122,0.167,3.084c0.477,0.961,1.331,1.684,2.355,1.996
					c0.063,0.018,6.412,1.973,12.6,5.734c5.182,3.148,11.357,8.261,11.357,14.729c0,6.094-5.133,15.271-11.074,25.896
					c-9.887,17.679-22.191,39.681-22.191,65.585c0,20.248,7.545,39.953,21.245,55.484c12.853,14.568,29.685,23.264,45.028,23.264
					h91.482c2.151,0,3.897-1.746,3.897-3.898c0-18.203-10.606-24.689-20.532-24.689h-13.513c3.472-6.283,7.12-15.504,8.591-25.32
					c13.8-0.328,37.366-9.92,46.448-19.002c8.14-8.141,11.966-8.139,14.887-6.922c8.478,3.525,20.867-0.852,24.366-3.188
					c1.645-1.096,2.478-2.447,2.478-4.021C-693.716-603.797-696.153-609.912-696.806-611.438z M-717.566-601.729
					c-9.201-3.828-16.99,2.201-23.393,8.607c-7.521,7.52-28.325,16.047-40.271,16.691c0.093-5.82-0.767-11.635-3.058-16.973
					c-5.987-13.961-19.97-21.356-41.561-21.986c-2.152-0.051-3.947,1.633-4.011,3.785c-0.062,2.15,1.632,3.947,3.783,4.01
					c18.29,0.531,29.938,6.338,34.622,17.264c7.105,16.568-2.985,39.775-8.192,47.045h-6.435c-2.153,0-3.898,1.746-3.898,3.898
					c0,2.154,1.745,3.896,3.898,3.896h29.107c4.301,0,11.232,1.795,12.524,12.998h-87.372c-13.141,0-27.787-7.711-39.18-20.625
					c-12.443-14.105-19.296-31.979-19.296-50.326c0-23.875,11.753-44.891,21.198-61.779c6.742-12.054,12.066-21.577,12.066-29.704
					c0-14.611-17.1-23.163-25.277-26.417c2.017-3.809,5.969-10.138,12.551-16.395c13.838-13.152,32.197-19.821,54.569-19.821
					c22.4,0,39.013,11.751,49.374,34.927c6.558,14.665,8.479,29.562,8.963,34.516c-9.685,4.355-25.381,14.364-34.575,24.905
					c-17.931-5.433-37.587-1.195-52.18,11.818c-21.005,18.732-26.119,49.857-13.679,83.268c0.584,1.568,2.072,2.537,3.653,2.537
					c0.452,0,0.911-0.078,1.36-0.246c2.018-0.75,3.045-2.996,2.293-5.012c-11.275-30.281-6.952-58.219,11.562-74.729
					c14.641-13.057,35.19-15.849,52.355-7.113c1.919,0.979,4.267,0.213,5.242-1.705c0.977-1.918,0.213-4.266-1.705-5.242
					c-0.367-0.188-0.74-0.359-1.111-0.539c9.324-9.688,23.041-17.667,30.074-20.897c-0.086,2.201,0.045,3.504,0.063,3.673
					c0.222,1.994,1.909,3.467,3.87,3.467c0.144,0,0.289-0.008,0.436-0.023c2.141-0.238,3.682-2.166,3.443-4.304
					c-0.01-0.107-0.979-9.761,5.76-23.47c2.395,3.199,5.793,9.353,8.229,20.405c0.461,2.104,2.541,3.432,4.645,2.967
					c2.103-0.463,3.432-2.543,2.969-4.644c-0.258-1.17-0.528-2.283-0.807-3.363c14.283,3.023,23.697,12.499,29.197,20.229
					c6.291,8.839,9.082,17.501,9.632,20.351c-0.575,0.938-1.815,2.613-3.948,3.93c-4.58,2.828-11.177,2.627-19.078-0.584
					c-1.995-0.811-4.27,0.148-5.08,2.143s0.148,4.268,2.145,5.078c1.703,0.693,3.324,1.256,4.873,1.703
					c-5.059,2.918-15.663,6.652-36.57,6.318c-0.02,0-0.041,0-0.062,0c-2.124,0-3.865,1.703-3.897,3.836
					c-0.034,2.15,1.684,3.926,3.836,3.959c0.922,0.017,1.824,0.021,2.712,0.021c17.565,0,28.443-2.805,35.106-5.908
					c6.651-2.914,15.065-1.391,18.064,0.057c1.723,1.084,4.667,7.898,5.957,11.83C-705.523-601.912-713.063-599.855-717.566-601.729
					z"/>
				<path d="M-760.338-511.033h-91.482c-16.381,0-34.24-9.16-47.775-24.504c-14.292-16.203-22.163-36.768-22.163-57.908
					c0-26.858,12.562-49.322,22.657-67.372c5.456-9.755,10.609-18.968,10.609-24.108c0-5.017-6.012-9.419-9.596-11.598
					c-5.732-3.483-11.709-5.344-11.769-5.362c-1.978-0.599-3.646-2.011-4.568-3.87c-0.922-1.857-1.039-4.037-0.323-5.98
					c0.184-0.497,4.633-12.332,16.775-24.005c11.049-10.62,30.911-23.279,62.785-23.279c27.019,0,47.74,14.494,59.928,41.916
					c2.77,6.231,4.771,12.426,6.213,17.935c0.174-0.326,0.351-0.65,0.529-0.975v-6.687c0-4.17,3.392-7.562,7.562-7.562
					c4.169,0,7.562,3.393,7.562,7.562v5.204c2.479,2.545,5.599,6.768,8.443,13.599c19.318,3.208,31.658,15.52,38.684,25.466
					c7.232,10.238,11.707,22.263,11.707,27.536c0,0.98-0.188,1.941-0.559,2.855c-0.104,0.25-1.783,4.199-5.953,7.812
					c2.141,1.607,4.729,4.689,7.635,11.48c0.346,0.809,3.387,8.002,3.387,11.139c0,2.795-1.461,5.31-4.111,7.072
					c-3.184,2.127-11.18,5.127-18.973,5.127c-0.001,0-0.001,0-0.002,0c-3.301,0-6.271-0.539-8.83-1.605
					c-0.511-0.211-0.906-0.303-1.323-0.303c-1.43,0-4.249,1.117-9.565,6.433c-9.135,9.139-30.916,18.422-45.916,19.885
					c-1.416,7.377-3.792,13.711-5.804,18.184h7.603c11.162,0,24.196,7.426,24.196,28.354
					C-752.776-514.426-756.168-511.033-760.338-511.033z M-835.188-751.693c-29.436,0-47.627,11.548-57.706,21.234
					c-10.94,10.517-14.938,21.149-14.978,21.255c-0.022,0.061-0.02,0.131,0.012,0.189c0.027,0.057,0.078,0.1,0.138,0.117
					c0.062,0.02,6.809,2.08,13.438,6.111c8.581,5.216,13.117,11.392,13.117,17.86c0,7.051-5.093,16.156-11.541,27.685
					c-9.68,17.308-21.725,38.847-21.725,63.796c0,19.355,7.219,38.197,20.329,53.061c12.165,13.789,27.971,22.023,42.28,22.023
					h91.482c0.129,0,0.233-0.105,0.233-0.234c0-13.166-6.306-21.025-16.868-21.025h-13.513l-3.208-5.436
					c1.884-3.408,6.451-12.58,8.176-24.092l3.536-3.119c12.953-0.309,35.54-9.527,43.944-17.932
					c5.932-5.934,10.48-8.578,14.747-8.578c1.386,0,2.739,0.283,4.139,0.865c1.661,0.691,3.686,1.043,6.016,1.043h0.001
					c6.335,0,12.937-2.58,14.906-3.895c0.391-0.262,0.85-0.637,0.85-0.978c-0.062-1.086-1.58-5.416-2.795-8.254
					c-1.484-3.469-3.731-7.832-6.006-8.932c-0.947-0.457-2.246-0.902-3.652-1.252l-0.526-6.938c6.075-2.537,8.452-7.824,8.476-7.877
					c-0.006-3.049-3.565-13.711-10.369-23.343c-6.422-9.092-17.812-20.407-35.626-22.722l-0.136-0.012l-2.984-2.338
					c-3.164-8.338-6.686-12.308-8.502-13.932l-1.223-2.731v-6.763c0-0.258-0.467-0.258-0.467,0v7.64l-0.475,1.803
					c-2.092,3.697-3.816,7.46-5.127,11.183l-7.068-0.594c-1.167-6.781-3.52-17.027-8.098-27.329
					C-792.878-738.704-811.285-751.693-835.188-751.693z M-764.448-518.828h-87.372c-14.176,0-29.85-8.174-41.928-21.867
					c-13.034-14.775-20.212-33.508-20.212-52.748c0-24.83,12.013-46.309,21.665-63.568c6.48-11.587,11.6-20.741,11.6-27.915
					c0-12.519-16.062-20.262-22.968-23.011l-1.884-5.118c2.297-4.341,6.463-10.873,13.265-17.338
					c14.54-13.822,33.75-20.83,57.094-20.83c23.977,0,41.714,12.479,52.719,37.095c6.675,14.929,8.704,29.909,9.266,35.655
					l-2.144,3.699c-9.895,4.449-24.935,14.362-33.318,23.971l-3.824,1.097c-4.712-1.427-9.594-2.152-14.512-2.152
					c-12.488,0-24.622,4.687-34.166,13.201c-19.834,17.687-24.576,47.314-12.684,79.252c0.057,0.152,0.213,0.152,0.22,0.152
					c0.185-0.053,0.259-0.211,0.22-0.314c-11.822-31.75-7.129-61.188,12.557-78.742c9.458-8.434,21.489-13.078,33.879-13.078
					c7.785,0,15.593,1.878,22.578,5.433c0.136,0.029,0.254,0.018,0.314-0.102c0.051-0.099-0.004-0.264-0.102-0.314
					c-0.24-0.123-0.472-0.232-0.703-0.344l-0.338-0.16l-1.048-5.839c10.028-10.421,24.32-18.534,31.185-21.686l5.189,3.468
					c-0.076,1.988,0.044,3.113,0.045,3.123c0.016,0.135,0.129,0.213,0.229,0.213c0.141-0.014,0.25-0.15,0.238-0.258
					c-0.049-0.479-1.013-10.998,6.111-25.492l6.222-0.579c2.63,3.512,6.304,10.146,8.874,21.812
					c0.029,0.134,0.152,0.185,0.223,0.185c0.164-0.031,0.258-0.179,0.234-0.287c-0.248-1.125-0.509-2.195-0.777-3.236l4.307-4.5
					c15.562,3.297,25.678,13.614,31.424,21.69c6.557,9.212,9.568,18.274,10.246,21.78l-0.475,2.609
					c-0.721,1.178-2.349,3.406-5.146,5.135c-5.586,3.447-13.363,3.359-22.385-0.309c-0.106-0.02-0.248-0.014-0.306,0.129
					c-0.048,0.117,0.01,0.254,0.13,0.303c1.543,0.627,3.062,1.158,4.514,1.578l0.811,6.693c-5.4,3.115-15.996,6.828-35.812,6.83
					c-0.002,0-0.005,0-0.008,0c-0.861,0-1.738-0.008-2.639-0.021c-0.129,0-0.234,0.102-0.236,0.227
					c-0.002,0.115,0.119,0.24,0.229,0.24c0.903,0.014,1.786,0.021,2.655,0.021c14.136,0,25.741-1.924,33.56-5.566
					c3.055-1.338,6.48-1.998,10.26-1.998c4.033,0,8.329,0.814,10.945,2.076l0.357,0.199c3.689,2.318,7.334,13.322,7.488,13.789
					l-2.033,4.508c-2.912,1.254-7.941,2.719-12.529,2.719c-2.225,0-4.186-0.346-5.826-1.029c-1.482-0.615-2.913-0.914-4.379-0.914
					c-5.543,0-10.701,4.412-15.018,8.729c-8.095,8.096-29.625,17.057-42.662,17.76l-3.862-3.717
					c0.093-5.779-0.837-10.984-2.761-15.471c-5.376-12.533-18.262-19.184-38.301-19.766c-0.11,0-0.236,0.086-0.24,0.229
					c-0.004,0.107,0.115,0.236,0.227,0.24c19.844,0.576,32.589,7.131,37.885,19.482c4.291,10.006,2.748,21.498,0.697,29.375
					c-2.34,8.996-6.348,17.154-9.281,21.248l-2.978,1.529h-6.435c-0.129,0-0.234,0.105-0.234,0.234c0,0.129,0.105,0.232,0.234,0.232
					h29.107c4.297,0,14.474,1.584,16.164,16.24L-764.448-518.828z M-897.08-713.073c9.266,4.324,23.713,13.43,23.713,28.147
					c0,9.086-5.529,18.974-12.531,31.491c-9.237,16.517-20.733,37.072-20.733,59.992c0,17.453,6.528,34.467,18.38,47.9
					c10.707,12.139,24.326,19.385,36.432,19.385h82.835c-1.36-3.805-3.998-5.666-7.987-5.666h-29.107
					c-4.171,0-7.562-3.393-7.562-7.562c0-4.169,3.392-7.562,7.562-7.562h4.46c4.616-7.561,12.911-27.688,6.8-41.938
					c-4.07-9.496-14.623-14.56-31.361-15.045c-2.019-0.058-3.896-0.9-5.28-2.369c-1.386-1.471-2.117-3.391-2.06-5.408
					c0.121-4.119,3.448-7.344,7.576-7.344l0.187,0.002c23.159,0.672,38.24,8.816,44.841,24.203
					c1.852,4.317,2.944,9.123,3.262,14.332c11.439-1.871,27.979-9.07,34.105-15.195c5.062-5.066,11.933-10.879,20.199-10.879
					c2.416,0,4.836,0.498,7.193,1.479c0.734,0.308,1.775,0.467,3.012,0.467c2.006,0,4.318-0.424,6.352-0.988
					c-1.186-2.916-2.527-5.568-3.247-6.48c-1.35-0.522-4.084-1.166-7.333-1.166c-2.722,0-5.227,0.467-7.242,1.349
					c-8.83,4.113-21.162,6.217-36.577,6.217c-0.906,0-1.827-0.006-2.769-0.021c-2.02-0.031-3.906-0.85-5.313-2.301
					c-1.405-1.451-2.161-3.361-2.13-5.381c0.062-4.104,3.455-7.441,7.562-7.441c0.979,0.014,1.817,0.02,2.642,0.02
					c0.002,0,0.005,0,0.008,0c11.674,0,19.655-1.361,24.966-2.918c-1.88-2.088-2.521-5.145-1.396-7.916
					c1.165-2.865,3.915-4.717,7.007-4.717c0.979,0,1.938,0.188,2.848,0.559c6.683,2.717,12.26,3.027,15.775,0.861
					c0.814-0.504,1.441-1.08,1.905-1.6c-0.96-3.354-3.589-10.326-8.651-17.439c-4.295-6.039-11.362-13.511-21.697-17.263
					c-0.133,1.119-0.516,2.203-1.142,3.182c-1.088,1.703-2.774,2.878-4.747,3.312c-0.534,0.119-1.084,0.18-1.631,0.18
					c-3.521,0-6.625-2.498-7.38-5.939c-1.232-5.589-2.698-9.816-4.134-12.986c-3.129,8.939-2.635,14.833-2.629,14.906
					c0.22,1.96-0.354,3.936-1.615,5.513c-1.262,1.578-3.062,2.568-5.07,2.793c-0.275,0.029-0.561,0.045-0.84,0.045
					c-3.281,0-6.109-2.094-7.142-5.082c-5.98,3.242-14.401,8.531-21.309,14.873c0.415,0.6,0.744,1.263,0.976,1.974
					c0.625,1.922,0.465,3.971-0.451,5.771c-1.297,2.549-3.881,4.133-6.742,4.133c-1.185,0-2.37-0.285-3.43-0.826
					c-6.043-3.076-12.521-4.635-19.252-4.635c-10.588,0-20.888,3.983-29.002,11.219c-17.344,15.467-21.294,41.904-10.566,70.717
					c0.705,1.891,0.631,3.945-0.21,5.783c-0.84,1.836-2.345,3.234-4.238,3.941c-0.849,0.314-1.736,0.475-2.639,0.475
					c-3.145,0-5.993-1.979-7.087-4.926c-12.986-34.875-7.502-67.502,14.674-87.277c10.889-9.71,24.754-15.058,39.043-15.058
					c4.857,0,9.686,0.617,14.384,1.834c8.604-9.148,21.776-18.019,31.831-22.96c-0.771-6.064-2.918-18.626-8.373-30.827
					c-9.717-21.736-25.204-32.757-46.028-32.757c-21.401,0-38.912,6.329-52.045,18.812
					C-891.704-720.833-894.893-716.567-897.08-713.073z"/>
			</g>
		</g>
	</g>
</g>
<g>
	<path d="M57.89-600.438h53.1l83.547,199.029h1.486l82.805-199.029h53.1v262.898h-35.648v-216.105h-0.741L206.794-337.54h-23.767
		L94.28-553.645h-0.742v216.105H57.89V-600.438z"/>
	<path d="M363.111-425.54c0-12.87,2.414-24.882,7.242-36.021c4.826-11.139,11.447-20.918,19.865-29.336
		c8.414-8.41,18.316-15.036,29.705-19.867c11.385-4.824,23.639-7.236,36.762-7.236c13.119,0,25.371,2.412,36.764,7.236
		c11.381,4.831,21.289,11.457,29.707,19.867c8.412,8.418,15.034,18.197,19.863,29.336c4.826,11.139,7.238,23.15,7.238,36.021
		c0,12.874-2.412,24.942-7.238,36.2c-4.829,11.268-11.451,21.047-19.863,29.336c-8.418,8.297-18.326,14.852-29.707,19.682
		c-11.393,4.826-23.645,7.238-36.764,7.238c-13.122,0-25.377-2.412-36.762-7.238c-11.389-4.83-21.291-11.385-29.705-19.682
		c-8.418-8.289-15.039-18.068-19.865-29.336C365.525-400.598,363.111-412.666,363.111-425.54z M398.764-425.54
		c0,8.911,1.354,17.146,4.079,24.69c2.726,7.557,6.56,13.988,11.517,19.307c4.945,5.328,11.01,9.533,18.192,12.629
		c7.179,3.096,15.225,4.641,24.135,4.641c8.912,0,16.953-1.545,24.139-4.641c7.178-3.096,13.24-7.301,18.193-12.629
		c4.949-5.318,8.783-11.75,11.512-19.307c2.721-7.545,4.086-15.779,4.086-24.69s-1.365-17.141-4.086-24.696
		c-2.729-7.547-6.562-13.979-11.512-19.307c-4.953-5.323-11.018-9.527-18.193-12.627c-7.186-3.092-15.227-4.641-24.139-4.641
		c-8.91,0-16.955,1.549-24.135,4.641c-7.184,3.1-13.247,7.304-18.192,12.627c-4.957,5.328-8.791,11.76-11.517,19.307
		C400.118-442.681,398.764-434.451,398.764-425.54z"/>
	<path d="M575.511-513.545h33.418v27.104h0.744c4.203-9.404,11.508-17.018,21.904-22.833S653.976-518,667.597-518
		c8.414,0,16.523,1.299,24.322,3.896c7.797,2.602,14.604,6.625,20.42,12.066c5.816,5.451,10.457,12.443,13.926,20.98
		c3.467,8.541,5.201,18.633,5.201,30.266v113.252h-33.424v-103.97c0-8.167-1.113-15.158-3.342-20.98
		c-2.229-5.811-5.195-10.518-8.91-14.111c-3.713-3.583-7.982-6.181-12.809-7.797c-4.83-1.607-9.842-2.412-15.041-2.412
		c-6.932,0-13.367,1.113-19.309,3.342c-5.941,2.227-11.139,5.754-15.594,10.584c-4.457,4.826-7.926,10.955-10.4,18.383
		c-2.475,7.422-3.711,16.215-3.711,26.359v90.604H575.51L575.511-513.545L575.511-513.545z"/>
	<path d="M859.567-484.584h-47.898v79.834c0,4.959,0.123,9.84,0.369,14.67c0.246,4.826,1.176,9.158,2.787,12.994
		c1.605,3.844,4.086,6.934,7.428,9.285c3.342,2.355,8.225,3.527,14.666,3.527c3.957,0,8.039-0.371,12.254-1.115
		c4.203-0.744,8.039-2.1,11.508-4.086v30.451c-3.963,2.229-9.096,3.773-15.402,4.641c-6.314,0.863-11.207,1.299-14.672,1.299
		c-12.873,0-22.832-1.797-29.893-5.385c-7.053-3.584-12.254-8.225-15.596-13.922c-3.342-5.693-5.328-12.068-5.939-19.121
		c-0.621-7.059-0.928-14.174-0.928-21.355v-91.717h-38.619v-28.961h38.619v-49.385h33.418v49.385h47.898V-484.584L859.567-484.584z"
		/>
	<g>
		<path d="M364.139-295.256h33.418v27.105h0.743c2.229-4.697,5.201-8.969,8.912-12.809c3.711-3.834,7.854-7.115,12.438-9.84
			c4.579-2.721,9.594-4.887,15.042-6.5c5.439-1.605,10.889-2.412,16.34-2.412c5.439,0,10.395,0.744,14.85,2.229l-1.48,36.016
			c-2.729-0.74-5.451-1.355-8.174-1.854c-2.727-0.494-5.445-0.744-8.168-0.744c-16.34,0-28.84,4.584-37.503,13.742
			c-8.67,9.156-12.998,23.391-12.998,42.697v88.375h-33.418L364.139-295.256L364.139-295.256z"/>
		<path d="M503.384-194.996c0,7.674,1.674,14.666,5.018,20.98c3.342,6.309,7.734,11.693,13.182,16.148
			c5.441,4.455,11.756,7.926,18.938,10.4c7.177,2.475,14.604,3.711,22.278,3.711c10.398,0,19.431-2.412,27.107-7.238
			c7.67-4.83,14.723-11.201,21.166-19.127l25.25,19.312c-18.566,24.014-44.562,36.016-77.98,36.016
			c-13.864,0-26.426-2.355-37.688-7.053c-11.27-4.703-20.795-11.197-28.596-19.498c-7.797-8.289-13.803-18.064-18.008-29.33
			c-4.213-11.264-6.312-23.455-6.312-36.576s2.283-25.307,6.867-36.574c4.578-11.264,10.893-21.041,18.939-29.338
			c8.039-8.289,17.641-14.789,28.777-19.496c11.141-4.697,23.266-7.053,36.391-7.053c15.598,0,28.777,2.727,39.543,8.168
			c10.771,5.451,19.619,12.566,26.549,21.354c6.932,8.789,11.939,18.695,15.041,29.707c3.092,11.016,4.643,22.221,4.643,33.602
			v11.885H503.384L503.384-194.996z M608.843-221.73c-0.252-7.428-1.428-14.234-3.525-20.426c-2.109-6.186-5.264-11.57-9.473-16.154
			c-4.213-4.574-9.465-8.168-15.777-10.764c-6.314-2.604-13.682-3.902-22.096-3.902c-8.172,0-15.661,1.551-22.463,4.641
			c-6.812,3.1-12.57,7.119-17.27,12.068c-4.707,4.959-8.355,10.461-10.953,16.523c-2.598,6.072-3.902,12.068-3.902,18.014H608.843
			L608.843-221.73z"/>
		<path d="M693.132-194.996c0,7.674,1.668,14.666,5.01,20.98c3.35,6.309,7.736,11.693,13.186,16.148
			c5.445,4.455,11.754,7.926,18.939,10.4c7.178,2.475,14.602,3.711,22.277,3.711c10.396,0,19.43-2.412,27.105-7.238
			c7.668-4.83,14.727-11.201,21.163-19.127l25.25,19.312c-18.565,24.014-44.558,36.016-77.976,36.016
			c-13.869,0-26.432-2.355-37.688-7.053c-11.27-4.703-20.796-11.197-28.594-19.498c-7.797-8.289-13.803-18.064-18.012-29.33
			c-4.211-11.264-6.311-23.455-6.311-36.576s2.283-25.307,6.868-36.574c4.577-11.264,10.89-21.041,18.938-29.338
			c8.043-8.289,17.637-14.789,28.777-19.496c11.139-4.697,23.264-7.053,36.389-7.053c15.596,0,28.777,2.727,39.547,8.168
			c10.771,5.451,19.615,12.566,26.551,21.354c6.925,8.789,11.939,18.695,15.035,29.707c3.096,11.016,4.646,22.221,4.646,33.602
			v11.885H693.132L693.132-194.996z M798.585-221.73c-0.246-7.428-1.426-14.234-3.525-20.426c-2.104-6.186-5.262-11.57-9.467-16.154
			c-4.215-4.574-9.471-8.168-15.785-10.764c-6.309-2.604-13.68-3.902-22.094-3.902c-8.166,0-15.656,1.551-22.463,4.641
			c-6.812,3.1-12.565,7.119-17.268,12.068c-4.703,4.959-8.354,10.461-10.955,16.523c-2.6,6.072-3.896,12.068-3.896,18.014H798.585
			L798.585-221.73z"/>
		<path d="M860.226-399.969h33.426v280.719h-33.426V-399.969z"/>
	</g>
</g>
<g>
	<path fill="#FFFFFF" d="M1007.654,9.679h53.101l83.547,199.028h1.486l82.804-199.028h53.1v262.898h-35.647V56.472h-0.742
		l-88.744,216.105h-23.766l-88.747-216.105h-0.742v216.105h-35.648V9.679z"/>
	<path fill="#FFFFFF" d="M1312.876,184.576c0-12.87,2.414-24.883,7.242-36.021c4.826-11.14,11.446-20.918,19.864-29.336
		c8.414-8.41,18.316-15.035,29.705-19.867c11.385-4.824,23.64-7.236,36.762-7.236c13.119,0,25.371,2.412,36.764,7.236
		c11.381,4.832,21.289,11.457,29.707,19.867c8.412,8.418,15.034,18.196,19.864,29.336c4.825,11.139,7.237,23.149,7.237,36.021
		c0,12.874-2.412,24.942-7.237,36.2c-4.83,11.269-11.452,21.047-19.864,29.335c-8.418,8.297-18.326,14.854-29.707,19.684
		c-11.393,4.824-23.645,7.236-36.764,7.236c-13.122,0-25.377-2.412-36.762-7.236c-11.389-4.829-21.291-11.387-29.704-19.684
		c-8.419-8.289-15.039-18.068-19.865-29.335C1315.29,209.52,1312.876,197.45,1312.876,184.576z M1348.528,184.576
		c0,8.91,1.354,17.146,4.079,24.69c2.726,7.557,6.56,13.987,11.517,19.307c4.945,5.328,11.011,9.533,18.192,12.629
		c7.18,3.097,15.225,4.642,24.136,4.642s16.952-1.545,24.138-4.642c7.178-3.096,13.24-7.301,18.193-12.629
		c4.949-5.317,8.783-11.75,11.512-19.307c2.721-7.546,4.086-15.78,4.086-24.69c0-8.911-1.365-17.141-4.086-24.695
		c-2.729-7.548-6.562-13.979-11.511-19.309c-4.954-5.322-11.019-9.525-18.194-12.627c-7.186-3.092-15.227-4.641-24.138-4.641
		s-16.956,1.549-24.136,4.641c-7.184,3.102-13.247,7.305-18.192,12.627c-4.957,5.328-8.791,11.761-11.516,19.309
		C1349.883,167.437,1348.528,175.665,1348.528,184.576z"/>
	<path fill="#FFFFFF" d="M1525.275,96.57h33.418v27.104h0.744c4.203-9.403,11.508-17.02,21.904-22.833
		c10.396-5.814,22.398-8.728,36.02-8.728c8.414,0,16.523,1.3,24.322,3.896c7.797,2.602,14.604,6.625,20.42,12.065
		c5.816,5.451,10.457,12.443,13.926,20.98c3.467,8.541,5.201,18.633,5.201,30.266v113.252h-33.424V168.606
		c0-8.166-1.113-15.158-3.342-20.979c-2.229-5.812-5.195-10.519-8.91-14.109c-3.713-3.584-7.982-6.183-12.809-7.798
		c-4.83-1.606-9.842-2.411-15.041-2.411c-6.932,0-13.367,1.112-19.309,3.342c-5.941,2.227-11.139,5.754-15.594,10.584
		c-4.457,4.826-7.926,10.955-10.4,18.383c-2.475,7.422-3.711,16.215-3.711,26.359v90.604h-33.417L1525.275,96.57L1525.275,96.57z"/>
	<path fill="#FFFFFF" d="M1809.332,125.531h-47.898v79.835c0,4.959,0.123,9.84,0.369,14.67c0.246,4.826,1.176,9.158,2.787,12.994
		c1.605,3.844,4.086,6.935,7.428,9.285c3.342,2.354,8.225,3.526,14.666,3.526c3.957,0,8.039-0.371,12.254-1.115
		c4.203-0.743,8.039-2.101,11.508-4.085v30.451c-3.963,2.229-9.096,3.772-15.402,4.641c-6.314,0.863-11.207,1.299-14.672,1.299
		c-12.873,0-22.832-1.797-29.893-5.385c-7.053-3.584-12.254-8.225-15.596-13.922c-3.342-5.693-5.328-12.069-5.939-19.121
		c-0.621-7.06-0.928-14.174-0.928-21.355v-91.718h-38.619V96.57h38.619V47.187h33.418v49.385h47.898V125.531L1809.332,125.531z"/>
	<g>
		<path fill="#FFFFFF" d="M1313.903,314.86h33.418v27.105h0.743c2.229-4.697,5.201-8.97,8.912-12.81
			c3.711-3.834,7.854-7.115,12.438-9.84c4.58-2.721,9.595-4.887,15.042-6.5c5.439-1.604,10.889-2.412,16.34-2.412
			c5.439,0,10.395,0.744,14.85,2.229l-1.48,36.016c-2.729-0.74-5.451-1.354-8.174-1.854c-2.727-0.494-5.445-0.744-8.168-0.744
			c-16.34,0-28.839,4.584-37.503,13.742c-8.67,9.155-12.998,23.391-12.998,42.696v88.375h-33.418V314.86H1313.903z"/>
		<path fill="#FFFFFF" d="M1453.148,415.12c0,7.677,1.674,14.666,5.018,20.98c3.342,6.309,7.734,11.692,13.182,16.147
			c5.441,4.455,11.756,7.927,18.938,10.4c7.177,2.475,14.604,3.711,22.278,3.711c10.398,0,19.431-2.412,27.107-7.238
			c7.67-4.83,14.723-11.2,21.166-19.127l25.25,19.312c-18.566,24.014-44.562,36.016-77.98,36.016
			c-13.864,0-26.426-2.354-37.688-7.053c-11.27-4.703-20.795-11.197-28.596-19.498c-7.797-8.289-13.803-18.064-18.008-29.33
			c-4.213-11.264-6.312-23.455-6.312-36.576s2.283-25.307,6.867-36.574c4.578-11.264,10.893-21.041,18.939-29.338
			c8.039-8.289,17.641-14.789,28.777-19.496c11.141-4.696,23.266-7.053,36.391-7.053c15.598,0,28.777,2.728,39.543,8.168
			c10.771,5.451,19.619,12.566,26.549,21.354c6.932,8.789,11.939,18.694,15.041,29.707c3.092,11.016,4.643,22.221,4.643,33.602
			v11.885H1453.148L1453.148,415.12z M1558.607,388.386c-0.252-7.429-1.428-14.234-3.525-20.427
			c-2.109-6.186-5.264-11.569-9.473-16.153c-4.213-4.574-9.465-8.168-15.777-10.765c-6.314-2.604-13.682-3.901-22.096-3.901
			c-8.172,0-15.661,1.551-22.463,4.641c-6.812,3.103-12.57,7.119-17.27,12.068c-4.707,4.959-8.355,10.461-10.953,16.522
			c-2.598,6.072-3.902,12.068-3.902,18.015H1558.607z"/>
		<path fill="#FFFFFF" d="M1642.896,415.12c0,7.677,1.668,14.666,5.01,20.98c3.35,6.309,7.736,11.692,13.186,16.147
			c5.445,4.455,11.754,7.927,18.939,10.4c7.178,2.475,14.602,3.711,22.277,3.711c10.396,0,19.43-2.412,27.105-7.238
			c7.668-4.83,14.727-11.2,21.163-19.127l25.25,19.312c-18.565,24.014-44.558,36.016-77.976,36.016
			c-13.869,0-26.432-2.354-37.688-7.053c-11.27-4.703-20.796-11.197-28.594-19.498c-7.797-8.289-13.803-18.064-18.012-29.33
			c-4.211-11.264-6.311-23.455-6.311-36.576s2.283-25.307,6.868-36.574c4.577-11.264,10.89-21.041,18.938-29.338
			c8.043-8.289,17.637-14.789,28.777-19.496c11.139-4.696,23.264-7.053,36.389-7.053c15.596,0,28.777,2.728,39.547,8.168
			c10.771,5.451,19.615,12.566,26.551,21.354c6.925,8.789,11.939,18.694,15.035,29.707c3.096,11.016,4.646,22.221,4.646,33.602
			v11.885H1642.896L1642.896,415.12z M1748.35,388.386c-0.246-7.429-1.426-14.234-3.525-20.427
			c-2.104-6.186-5.262-11.569-9.467-16.153c-4.215-4.574-9.471-8.168-15.785-10.765c-6.309-2.604-13.68-3.901-22.094-3.901
			c-8.166,0-15.656,1.551-22.463,4.641c-6.812,3.103-12.565,7.119-17.268,12.068c-4.703,4.959-8.354,10.461-10.955,16.522
			c-2.6,6.072-3.896,12.068-3.896,18.015H1748.35z"/>
		<path fill="#FFFFFF" d="M1809.99,210.148h33.426v280.718h-33.426V210.148z"/>
	</g>
</g>
<g>
	<path d="M54.619,701.678h53.101l83.547,199.029h1.486l82.804-199.029h53.1v262.899h-35.647V748.471h-0.742l-88.744,216.106h-23.766
		L91.009,748.471h-0.741v216.106H54.619V701.678z"/>
	<path d="M359.841,876.576c0-12.87,2.414-24.883,7.242-36.021c4.826-11.139,11.446-20.918,19.864-29.336
		c8.414-8.41,18.316-15.035,29.705-19.867c11.385-4.823,23.64-7.235,36.762-7.235c13.119,0,25.371,2.412,36.764,7.235
		c11.381,4.832,21.289,11.457,29.707,19.867c8.412,8.418,15.034,18.197,19.864,29.336c4.825,11.14,7.237,23.15,7.237,36.021
		c0,12.874-2.412,24.941-7.237,36.2c-4.83,11.268-11.452,21.047-19.864,29.336c-8.418,8.297-18.326,14.854-29.707,19.684
		c-11.393,4.824-23.645,7.236-36.764,7.236c-13.122,0-25.377-2.412-36.762-7.236c-11.389-4.83-21.291-11.387-29.704-19.684
		c-8.419-8.289-15.039-18.068-19.865-29.336C362.255,901.52,359.841,889.45,359.841,876.576z M395.493,876.576
		c0,8.91,1.354,17.146,4.079,24.689c2.726,7.558,6.56,13.987,11.517,19.308c4.945,5.328,11.011,9.533,18.192,12.629
		c7.18,3.096,15.225,4.641,24.136,4.641s16.952-1.545,24.138-4.641c7.178-3.096,13.24-7.301,18.193-12.629
		c4.949-5.318,8.783-11.75,11.512-19.308c2.721-7.546,4.086-15.779,4.086-24.689c0-8.911-1.365-17.141-4.086-24.696
		c-2.729-7.547-6.562-13.979-11.511-19.308c-4.954-5.322-11.019-9.526-18.194-12.627c-7.186-3.092-15.227-4.642-24.138-4.642
		s-16.956,1.55-24.136,4.642c-7.184,3.101-13.247,7.305-18.192,12.627c-4.957,5.328-8.791,11.761-11.516,19.308
		C396.848,859.436,395.493,867.665,395.493,876.576z"/>
	<path d="M572.24,788.57h33.418v27.104h0.744c4.203-9.402,11.508-17.019,21.904-22.833c10.396-5.813,22.398-8.727,36.02-8.727
		c8.414,0,16.523,1.3,24.322,3.896c7.797,2.603,14.604,6.625,20.42,12.066c5.816,5.451,10.457,12.442,13.926,20.979
		c3.467,8.541,5.201,18.634,5.201,30.267v113.253h-33.424v-103.97c0-8.166-1.113-15.158-3.342-20.979
		c-2.229-5.812-5.195-10.519-8.91-14.11c-3.713-3.584-7.982-6.182-12.809-7.798c-4.83-1.605-9.842-2.411-15.041-2.411
		c-6.932,0-13.367,1.112-19.309,3.343c-5.941,2.227-11.139,5.754-15.594,10.584c-4.457,4.825-7.926,10.955-10.4,18.383
		c-2.475,7.422-3.711,16.215-3.711,26.358v90.604h-33.417L572.24,788.57L572.24,788.57z"/>
	<path d="M856.297,817.531h-47.898v79.835c0,4.959,0.123,9.84,0.369,14.67c0.246,4.826,1.176,9.158,2.787,12.994
		c1.605,3.844,4.086,6.934,7.428,9.285c3.342,2.354,8.225,3.525,14.666,3.525c3.957,0,8.039-0.371,12.254-1.115
		c4.203-0.742,8.039-2.1,11.508-4.085v30.451c-3.963,2.229-9.096,3.773-15.402,4.642c-6.314,0.862-11.207,1.299-14.672,1.299
		c-12.873,0-22.832-1.797-29.893-5.386c-7.053-3.584-12.254-8.225-15.596-13.922c-3.342-5.692-5.328-12.068-5.939-19.121
		c-0.621-7.06-0.928-14.174-0.928-21.354v-91.718h-38.619V788.57h38.619v-49.386h33.418v49.386h47.898V817.531L856.297,817.531z"/>
	<g>
		<path d="M360.868,1006.86h33.418v27.104h0.743c2.229-4.697,5.201-8.969,8.912-12.809c3.711-3.834,7.854-7.115,12.438-9.84
			c4.58-2.722,9.595-4.888,15.042-6.5c5.439-1.605,10.889-2.412,16.34-2.412c5.439,0,10.395,0.744,14.85,2.229l-1.48,36.017
			c-2.729-0.74-5.451-1.354-8.174-1.854c-2.727-0.494-5.445-0.744-8.168-0.744c-16.34,0-28.839,4.584-37.503,13.742
			c-8.67,9.156-12.998,23.391-12.998,42.697v88.375H360.87v-176.006L360.868,1006.86L360.868,1006.86z"/>
		<path d="M500.113,1107.12c0,7.676,1.674,14.666,5.018,20.979c3.342,6.31,7.734,11.693,13.182,16.148
			c5.441,4.455,11.756,7.926,18.938,10.4c7.177,2.475,14.604,3.711,22.278,3.711c10.398,0,19.431-2.412,27.107-7.238
			c7.67-4.83,14.723-11.201,21.166-19.127l25.25,19.312c-18.566,24.015-44.562,36.017-77.98,36.017
			c-13.864,0-26.426-2.355-37.688-7.053c-11.27-4.703-20.795-11.197-28.596-19.498c-7.797-8.289-13.803-18.064-18.008-29.33
			c-4.213-11.265-6.312-23.455-6.312-36.576s2.283-25.308,6.867-36.574c4.578-11.264,10.893-21.041,18.939-29.338
			c8.039-8.289,17.641-14.789,28.777-19.496c11.141-4.697,23.266-7.053,36.391-7.053c15.598,0,28.777,2.727,39.543,8.168
			c10.771,5.451,19.619,12.565,26.549,21.354c6.932,8.789,11.939,18.695,15.041,29.707c3.092,11.017,4.643,22.221,4.643,33.603
			v11.885H500.113L500.113,1107.12z M605.572,1080.386c-0.252-7.428-1.428-14.233-3.525-20.426
			c-2.109-6.187-5.264-11.57-9.473-16.154c-4.213-4.573-9.465-8.168-15.777-10.764c-6.314-2.604-13.682-3.902-22.096-3.902
			c-8.172,0-15.661,1.552-22.463,4.642c-6.812,3.102-12.57,7.119-17.27,12.067c-4.707,4.959-8.355,10.461-10.953,16.523
			c-2.598,6.071-3.902,12.067-3.902,18.014H605.572L605.572,1080.386z"/>
		<path d="M689.861,1107.12c0,7.676,1.668,14.666,5.01,20.979c3.35,6.31,7.736,11.693,13.186,16.148
			c5.445,4.455,11.754,7.926,18.939,10.4c7.178,2.475,14.602,3.711,22.277,3.711c10.396,0,19.43-2.412,27.105-7.238
			c7.668-4.83,14.727-11.201,21.163-19.127l25.25,19.312c-18.565,24.015-44.558,36.017-77.976,36.017
			c-13.869,0-26.432-2.355-37.688-7.053c-11.27-4.703-20.796-11.197-28.594-19.498c-7.797-8.289-13.803-18.064-18.012-29.33
			c-4.211-11.265-6.311-23.455-6.311-36.576s2.283-25.308,6.868-36.574c4.577-11.264,10.89-21.041,18.938-29.338
			c8.043-8.289,17.637-14.789,28.777-19.496c11.139-4.697,23.264-7.053,36.389-7.053c15.596,0,28.777,2.727,39.547,8.168
			c10.771,5.451,19.615,12.565,26.551,21.354c6.925,8.789,11.939,18.695,15.035,29.707c3.096,11.017,4.646,22.221,4.646,33.603
			v11.885H689.861L689.861,1107.12z M795.314,1080.386c-0.246-7.428-1.426-14.233-3.525-20.426
			c-2.104-6.187-5.262-11.57-9.467-16.154c-4.215-4.573-9.471-8.168-15.785-10.764c-6.309-2.604-13.68-3.902-22.094-3.902
			c-8.166,0-15.656,1.552-22.463,4.642c-6.812,3.102-12.565,7.119-17.268,12.067c-4.703,4.959-8.354,10.461-10.955,16.523
			c-2.6,6.071-3.896,12.067-3.896,18.014H795.314L795.314,1080.386z"/>
		<path d="M856.955,902.147h33.426v280.719h-33.426V902.147z"/>
	</g>
</g>
<g>
	<path fill="#FFFFFF" d="M1338.278,756.839h33.818l53.206,126.75h0.953l52.718-126.75h33.818v167.414h-22.695V786.641h-0.468
		l-56.516,137.612h-15.142l-56.511-137.612h-0.489v137.612h-22.694L1338.278,756.839L1338.278,756.839z"/>
	<path fill="#FFFFFF" d="M1533.304,812.181h21.277v17.255h0.483c1.422-2.997,3.308-5.717,5.663-8.159
		c2.375-2.444,5.009-4.52,7.921-6.274c2.93-1.729,6.113-3.096,9.578-4.118c3.467-1.027,6.947-1.543,10.415-1.543
		c3.462,0,6.613,0.465,9.456,1.418l-0.953,22.938c-1.731-0.481-3.462-0.864-5.197-1.18c-1.729-0.329-3.461-0.48-5.194-0.48
		c-10.412,0-18.365,2.928-23.893,8.749c-5.526,5.836-8.279,14.896-8.279,27.196v56.271h-21.277V812.181L1533.304,812.181z"/>
</g>
<g>
	<g>
		<path d="M-971.482-1005.521c-2.783-6.503-4.967-8.155-6.368-8.833c-0.922-0.446-2.145-0.881-3.572-1.237
			c6.208-2.59,8.503-7.945,8.542-8.037c0.156-0.384,0.237-0.794,0.237-1.209c0-3.28-3.217-12.578-9.035-20.813
			c-5.608-7.94-15.586-17.83-31.272-19.853c-0.033-0.004-0.062-0.004-0.096-0.008c-2.745-7.234-5.882-10.895-7.766-12.579v-5.537
			c0-1.763-1.428-3.192-3.191-3.192s-3.192,1.429-3.192,3.192v6.254c-1.946,3.44-3.376,6.685-4.416,9.637
			c-1.042-6.048-3.042-14.527-6.845-23.084c-9.46-21.285-25.479-32.536-46.325-32.536c-25.098,0-40.676,9.91-49.325,18.223
			c-9.437,9.07-12.858,18.146-12.999,18.528c-0.304,0.824-0.254,1.738,0.137,2.525c0.391,0.788,1.09,1.379,1.931,1.634
			c0.052,0.016,5.249,1.615,10.315,4.695c4.242,2.578,9.298,6.764,9.298,12.059c0,4.99-4.202,12.504-9.067,21.204
			c-8.095,14.474-18.169,32.488-18.169,53.696c0,16.578,6.178,32.711,17.396,45.428c10.521,11.928,24.303,19.047,36.866,19.047h74.9
			c1.762,0,3.191-1.429,3.191-3.191c0-14.904-8.685-20.215-16.812-20.215h-11.062c2.843-5.145,5.831-12.693,7.034-20.73
			c11.298-0.27,30.593-8.121,38.029-15.559c6.664-6.663,9.797-6.661,12.188-5.666c6.941,2.887,17.084-0.697,19.95-2.61
			c1.347-0.897,2.028-2.005,2.028-3.293C-968.951-999.265-970.947-1004.272-971.482-1005.521z M-988.479-997.573
			c-7.535-3.134-13.911,1.804-19.154,7.048c-6.157,6.156-23.19,13.138-32.971,13.666c0.076-4.767-0.628-9.526-2.503-13.897
			c-4.902-11.43-16.351-17.485-34.028-18c-1.762-0.043-3.232,1.335-3.283,3.097c-0.051,1.762,1.336,3.232,3.098,3.283
			c14.974,0.436,24.511,5.19,28.347,14.135c5.817,13.564-2.445,32.566-6.708,38.52h-5.271c-1.763,0-3.192,1.43-3.192,3.19
			c0,1.762,1.429,3.191,3.192,3.191h23.832c3.521,0,9.196,1.469,10.254,10.64h-71.536c-10.758,0-22.75-6.312-32.078-16.887
			c-10.188-11.549-15.798-26.182-15.798-41.203c0-19.545,9.624-36.754,17.356-50.581c5.52-9.87,9.879-17.666,9.879-24.32
			c0-11.962-14.001-18.964-20.695-21.628c1.65-3.12,4.885-8.301,10.275-13.424c11.329-10.769,26.361-16.229,44.678-16.229
			c18.34,0,31.941,9.621,40.425,28.596c5.369,12.008,6.942,24.207,7.338,28.261c-7.929,3.565-20.78,11.761-28.309,20.391
			c-14.68-4.449-30.774-0.978-42.722,9.676c-17.197,15.336-21.384,40.82-11.199,68.174c0.479,1.285,1.697,2.079,2.992,2.079
			c0.37,0,0.746-0.065,1.113-0.201c1.652-0.615,2.493-2.454,1.877-4.104c-9.231-24.793-5.692-47.666,9.466-61.183
			c11.987-10.688,28.813-12.976,42.867-5.823c1.571,0.8,3.493,0.174,4.292-1.397c0.8-1.571,0.174-3.493-1.396-4.292
			c-0.301-0.153-0.605-0.294-0.909-0.441c7.634-7.931,18.864-14.465,24.622-17.109c-0.069,1.801,0.037,2.868,0.053,3.006
			c0.181,1.633,1.563,2.839,3.168,2.839c0.117,0,0.236-0.006,0.356-0.02c1.752-0.194,3.015-1.772,2.82-3.525
			c-0.009-0.087-0.802-7.991,4.714-19.216c1.961,2.619,4.744,7.657,6.737,16.707c0.378,1.722,2.082,2.81,3.803,2.43
			c1.722-0.379,2.81-2.082,2.43-3.804c-0.211-0.958-0.433-1.869-0.661-2.753c11.695,2.476,19.402,10.235,23.905,16.563
			c5.151,7.238,7.436,14.329,7.886,16.661c-0.471,0.769-1.486,2.141-3.232,3.219c-3.75,2.315-9.151,2.149-15.621-0.479
			c-1.632-0.664-3.495,0.122-4.159,1.755c-0.664,1.632,0.122,3.494,1.756,4.158c1.394,0.565,2.722,1.025,3.99,1.395
			c-4.142,2.387-12.824,5.445-29.941,5.171c-0.017,0-0.035,0-0.051,0c-1.739,0-3.164,1.396-3.19,3.142
			c-0.028,1.762,1.378,3.214,3.141,3.242c0.755,0.012,1.493,0.018,2.22,0.018c14.382,0,23.288-2.297,28.744-4.838
			c5.445-2.385,12.334-1.139,14.79,0.047c1.41,0.887,3.821,6.466,4.877,9.685C-978.619-997.723-984.792-996.04-988.479-997.573z"/>
	</g>
</g>
<g>
	<g>
		<path fill="#FFFFFF" d="M-647.971-380.449h21.879l34.425,82.009h0.612l34.119-82.009h21.879v108.325h-14.688v-89.046h-0.306
			l-36.566,89.046h-9.792l-36.567-89.046h-0.306v89.046h-14.688v-108.325H-647.971L-647.971-380.449z"/>
		<path fill="#FFFFFF" d="M-522.207-308.384c0-5.303,0.995-10.252,2.984-14.842c1.988-4.59,4.717-8.619,8.186-12.088
			c3.467-3.465,7.547-6.195,12.239-8.186c4.691-1.989,9.74-2.983,15.147-2.983c5.405,0,10.454,0.994,15.147,2.983
			c4.689,1.99,8.771,4.721,12.24,8.186c3.466,3.469,6.195,7.498,8.186,12.088c1.988,4.59,2.982,9.539,2.982,14.842
			c0,5.305-0.994,10.277-2.982,14.916c-1.99,4.643-4.72,8.672-8.186,12.088c-3.469,3.418-7.551,6.119-12.24,8.109
			c-4.693,1.988-9.742,2.982-15.147,2.982c-5.407,0-10.456-0.994-15.147-2.982c-4.692-1.99-8.772-4.691-12.239-8.109
			c-3.469-3.416-6.197-7.445-8.186-12.088C-521.212-298.106-522.207-303.079-522.207-308.384z M-507.518-308.384
			c0,3.672,0.559,7.064,1.682,10.174c1.122,3.113,2.702,5.764,4.744,7.955c2.038,2.195,4.537,3.928,7.497,5.203
			c2.957,1.275,6.271,1.912,9.944,1.912c3.672,0,6.985-0.637,9.945-1.912c2.957-1.275,5.455-3.008,7.497-5.203
			c2.039-2.191,3.619-4.842,4.742-7.955c1.121-3.109,1.684-6.502,1.684-10.174c0-3.672-0.562-7.062-1.684-10.176
			c-1.123-3.109-2.703-5.76-4.742-7.955c-2.042-2.193-4.54-3.926-7.497-5.203c-2.96-1.273-6.273-1.912-9.945-1.912
			c-3.672,0-6.987,0.639-9.944,1.912c-2.96,1.277-5.459,3.01-7.497,5.203c-2.042,2.195-3.622,4.846-4.744,7.955
			C-506.959-315.446-507.518-312.056-507.518-308.384z"/>
		<path fill="#FFFFFF" d="M-434.69-344.646h13.77v11.169h0.307c1.732-3.875,4.742-7.012,9.025-9.408
			c4.285-2.397,9.23-3.597,14.842-3.597c3.467,0,6.809,0.535,10.021,1.605c3.213,1.073,6.018,2.731,8.414,4.974
			c2.396,2.246,4.309,5.127,5.738,8.645c1.428,3.52,2.143,7.678,2.143,12.471v46.664h-13.771v-42.84
			c0-3.365-0.459-6.246-1.377-8.645c-0.918-2.395-2.141-4.334-3.672-5.814c-1.529-1.477-3.289-2.547-5.277-3.213
			c-1.99-0.662-4.055-0.994-6.197-0.994c-2.855,0-5.508,0.459-7.955,1.377c-2.449,0.918-4.59,2.371-6.426,4.361
			c-1.836,1.988-3.266,4.514-4.285,7.574c-1.02,3.059-1.529,6.682-1.529,10.861v37.332h-13.77L-434.69-344.646L-434.69-344.646z"/>
		<path fill="#FFFFFF" d="M-317.647-332.712h-19.736v32.895c0,2.043,0.051,4.055,0.152,6.045c0.102,1.988,0.484,3.773,1.148,5.354
			c0.662,1.584,1.684,2.857,3.061,3.826c1.377,0.971,3.389,1.453,6.043,1.453c1.631,0,3.312-0.152,5.049-0.459
			c1.732-0.307,3.312-0.865,4.742-1.684v12.547c-1.633,0.918-3.748,1.555-6.348,1.912c-2.602,0.355-4.617,0.535-6.045,0.535
			c-5.305,0-9.408-0.74-12.316-2.219c-2.906-1.477-5.049-3.389-6.426-5.736c-1.377-2.346-2.195-4.973-2.447-7.879
			c-0.256-2.908-0.383-5.84-0.383-8.799v-37.791h-15.912v-11.935h15.912v-20.35h13.77v20.35h19.736V-332.712L-317.647-332.712z"/>
		<path fill="#FFFFFF" d="M-306.784-344.646h13.77v11.169h0.307c0.918-1.936,2.143-3.695,3.672-5.277
			c1.529-1.58,3.236-2.932,5.125-4.055c1.887-1.122,3.953-2.015,6.197-2.679c2.242-0.662,4.486-0.994,6.732-0.994
			c2.242,0,4.283,0.307,6.119,0.918l-0.611,14.841c-1.123-0.305-2.246-0.559-3.367-0.764c-1.123-0.203-2.244-0.307-3.365-0.307
			c-6.732,0-11.883,1.889-15.453,5.662c-3.572,3.773-5.355,9.639-5.355,17.594v36.414h-13.77L-306.784-344.646L-306.784-344.646z"/>
		<path fill="#FFFFFF" d="M-249.409-303.335c0,3.162,0.689,6.043,2.066,8.645c1.377,2.6,3.188,4.818,5.432,6.654
			c2.242,1.836,4.844,3.266,7.803,4.285c2.957,1.02,6.018,1.529,9.18,1.529c4.285,0,8.006-0.994,11.17-2.982
			c3.16-1.99,6.066-4.615,8.721-7.881l10.404,7.957c-7.65,9.895-18.361,14.84-32.131,14.84c-5.713,0-10.889-0.971-15.529-2.906
			c-4.643-1.938-8.568-4.613-11.781-8.033c-3.213-3.416-5.688-7.443-7.42-12.086c-1.736-4.641-2.602-9.664-2.602-15.07
			c0-5.406,0.941-10.428,2.83-15.07c1.887-4.641,4.488-8.67,7.805-12.088c3.312-3.416,7.268-6.094,11.857-8.033
			c4.59-1.937,9.586-2.907,14.994-2.907c6.426,0,11.857,1.123,16.293,3.366c4.438,2.246,8.084,5.178,10.939,8.799
			s4.92,7.703,6.197,12.24c1.273,4.539,1.912,9.156,1.912,13.846v4.896L-249.409-303.335L-249.409-303.335z M-205.956-314.351
			c-0.104-3.061-0.588-5.865-1.453-8.416c-0.869-2.549-2.168-4.768-3.902-6.656c-1.736-1.885-3.9-3.365-6.502-4.436
			c-2.602-1.072-5.637-1.607-9.104-1.607c-3.367,0-6.453,0.639-9.256,1.912c-2.807,1.277-5.18,2.934-7.115,4.973
			c-1.939,2.043-3.443,4.311-4.514,6.809c-1.07,2.502-1.607,4.973-1.607,7.422L-205.956-314.351L-205.956-314.351z"/>
		<path fill="#FFFFFF" d="M-171.226-303.335c0,3.162,0.688,6.043,2.064,8.645c1.379,2.6,3.188,4.818,5.432,6.654
			s4.844,3.266,7.805,4.285c2.957,1.02,6.016,1.529,9.18,1.529c4.283,0,8.006-0.994,11.168-2.982c3.16-1.99,6.068-4.615,8.721-7.881
			l10.404,7.957c-7.65,9.895-18.359,14.84-32.129,14.84c-5.715,0-10.891-0.971-15.529-2.906c-4.643-1.938-8.568-4.613-11.781-8.033
			c-3.213-3.416-5.688-7.443-7.422-12.086c-1.734-4.641-2.6-9.664-2.6-15.07c0-5.406,0.941-10.428,2.83-15.07
			c1.887-4.641,4.486-8.67,7.803-12.088c3.314-3.416,7.268-6.094,11.857-8.033c4.59-1.937,9.586-2.907,14.994-2.907
			c6.426,0,11.857,1.123,16.295,3.366c4.438,2.246,8.082,5.178,10.939,8.799c2.854,3.621,4.92,7.703,6.195,12.24
			c1.275,4.539,1.914,9.156,1.914,13.846v4.896L-171.226-303.335L-171.226-303.335z M-127.774-314.351
			c-0.102-3.061-0.588-5.865-1.453-8.416c-0.867-2.549-2.168-4.768-3.9-6.656c-1.736-1.885-3.902-3.365-6.504-4.436
			c-2.6-1.072-5.637-1.607-9.104-1.607c-3.365,0-6.451,0.639-9.256,1.912c-2.807,1.277-5.178,2.934-7.115,4.973
			c-1.938,2.043-3.441,4.311-4.514,6.809c-1.07,2.502-1.605,4.973-1.605,7.422L-127.774-314.351L-127.774-314.351z"/>
		<path fill="#FFFFFF" d="M-102.376-387.793h13.771v115.669h-13.771V-387.793L-102.376-387.793z"/>
	</g>
	<g>
		<g>
			<g>
				<path fill="#FFFFFF" d="M-696.806-305.45c-3.4-7.941-6.066-9.959-7.778-10.787c-1.127-0.543-2.619-1.076-4.363-1.51
					c7.582-3.166,10.386-9.704,10.433-9.816c0.19-0.47,0.29-0.971,0.29-1.477c0-4.007-3.93-15.362-11.035-25.423
					c-6.85-9.698-19.037-21.777-38.196-24.248c-0.04-0.006-0.078-0.006-0.117-0.01c-3.353-8.835-7.184-13.307-9.486-15.363v-6.763
					c0-2.153-1.744-3.899-3.898-3.899c-2.153,0-3.898,1.746-3.898,3.899v7.639c-2.377,4.202-4.125,8.165-5.394,11.771
					c-1.271-7.388-3.715-17.744-8.36-28.196c-11.554-25.997-31.119-39.738-56.58-39.738c-30.654,0-49.683,12.104-60.246,22.256
					c-11.525,11.079-15.705,22.164-15.876,22.631c-0.371,1.007-0.311,2.123,0.167,3.084s1.332,1.685,2.358,1.996
					c0.063,0.019,6.411,1.973,12.599,5.734c5.181,3.148,11.357,8.262,11.357,14.73c0,6.094-5.133,15.271-11.075,25.896
					c-9.887,17.679-22.189,39.681-22.189,65.585c0,20.248,7.545,39.953,21.245,55.485c12.852,14.567,29.684,23.263,45.028,23.263
					h91.482c2.152,0,3.898-1.745,3.898-3.897c0-18.204-10.606-24.69-20.532-24.69h-13.513c3.472-6.283,7.121-15.504,8.591-25.319
					c13.799-0.329,37.366-9.92,46.448-19.003c8.139-8.141,11.966-8.138,14.887-6.921c8.478,3.525,20.867-0.852,24.367-3.189
					c1.645-1.096,2.477-2.447,2.477-4.021C-693.716-297.809-696.153-303.925-696.806-305.45z M-717.566-295.741
					c-9.202-3.828-16.991,2.202-23.394,8.608c-7.521,7.519-28.325,16.047-40.27,16.691c0.093-5.821-0.767-11.635-3.057-16.974
					c-5.988-13.96-19.97-21.357-41.562-21.985c-2.152-0.052-3.947,1.632-4.01,3.784c-0.062,2.151,1.631,3.948,3.783,4.01
					c18.29,0.531,29.938,6.338,34.623,17.265c7.105,16.567-2.986,39.775-8.193,47.044h-6.435c-2.153,0-3.898,1.746-3.898,3.898
					c0,2.154,1.745,3.897,3.898,3.897h29.108c4.3,0,11.232,1.794,12.524,12.997h-87.373c-13.141,0-27.787-7.711-39.18-20.625
					c-12.443-14.105-19.295-31.979-19.295-50.325c0-23.875,11.753-44.891,21.199-61.78c6.742-12.054,12.066-21.577,12.066-29.704
					c0-14.611-17.101-23.163-25.277-26.417c2.016-3.81,5.968-10.138,12.551-16.396c13.837-13.152,32.197-19.821,54.569-19.821
					c22.4,0,39.013,11.751,49.374,34.927c6.558,14.666,8.479,29.564,8.963,34.517c-9.685,4.354-25.381,14.366-34.576,24.907
					c-17.931-5.436-37.587-1.196-52.18,11.818c-21.004,18.731-26.119,49.857-13.678,83.267c0.583,1.569,2.072,2.538,3.653,2.538
					c0.452,0,0.912-0.078,1.36-0.246c2.018-0.751,3.045-2.996,2.293-5.012c-11.275-30.282-6.953-58.219,11.562-74.729
					c14.641-13.056,35.191-15.849,52.356-7.113c1.918,0.979,4.266,0.213,5.242-1.705c0.977-1.918,0.212-4.266-1.706-5.241
					c-0.367-0.188-0.74-0.361-1.11-0.539c9.324-9.688,23.04-17.668,30.073-20.898c-0.085,2.201,0.045,3.503,0.064,3.672
					c0.222,1.995,1.91,3.469,3.871,3.469c0.143,0,0.289-0.008,0.436-0.024c2.14-0.237,3.682-2.165,3.443-4.306
					c-0.01-0.105-0.979-9.76,5.759-23.469c2.395,3.199,5.793,9.352,8.229,20.405c0.462,2.103,2.542,3.432,4.645,2.968
					c2.103-0.463,3.432-2.543,2.969-4.646c-0.258-1.17-0.528-2.282-0.807-3.363c14.284,3.025,23.697,12.502,29.197,20.232
					c6.292,8.84,9.083,17.502,9.632,20.351c-0.575,0.938-1.815,2.614-3.948,3.931c-4.58,2.827-11.177,2.627-19.079-0.584
					c-1.995-0.811-4.269,0.147-5.08,2.142c-0.81,1.995,0.149,4.269,2.145,5.079c1.703,0.692,3.325,1.255,4.874,1.703
					c-5.059,2.918-15.663,6.651-36.57,6.317c-0.021,0-0.042,0-0.062,0c-2.125,0-3.865,1.703-3.897,3.836
					c-0.035,2.151,1.683,3.927,3.836,3.96c0.922,0.015,1.824,0.021,2.711,0.021c17.565,0,28.443-2.805,35.107-5.909
					c6.651-2.913,15.065-1.391,18.064,0.057c1.723,1.084,4.667,7.899,5.957,11.83C-705.523-295.924-713.063-293.868-717.566-295.741
					z"/>
				<path fill="#FFFFFF" d="M-760.338-205.045h-91.482c-16.38,0-34.24-9.161-47.775-24.505
					c-14.292-16.202-22.162-36.768-22.162-57.908c0-26.858,12.562-49.322,22.656-67.372c5.457-9.757,10.61-18.971,10.61-24.109
					c0-5.018-6.012-9.421-9.596-11.6c-5.731-3.483-11.708-5.344-11.768-5.361c-1.978-0.6-3.646-2.012-4.568-3.871
					c-0.922-1.856-1.039-4.036-0.323-5.979c0.183-0.497,4.632-12.333,16.775-24.006c11.049-10.62,30.911-23.279,62.785-23.279
					c27.019,0,47.741,14.494,59.928,41.916c2.77,6.231,4.771,12.426,6.213,17.935c0.174-0.326,0.351-0.65,0.529-0.976v-6.686
					c0-4.171,3.392-7.563,7.562-7.563c4.169,0,7.562,3.393,7.562,7.563v5.204c2.479,2.544,5.598,6.767,8.443,13.598
					c19.318,3.209,31.658,15.52,38.684,25.469c7.231,10.238,11.707,22.264,11.707,27.536c0,0.98-0.188,1.941-0.559,2.856
					c-0.104,0.249-1.784,4.198-5.954,7.812c2.142,1.607,4.729,4.69,7.635,11.48c0.346,0.81,3.386,8.002,3.386,11.14
					c0,2.795-1.46,5.308-4.111,7.071c-3.184,2.127-11.18,5.127-18.973,5.127c-0.001,0-0.001,0-0.001,0
					c-3.301,0-6.271-0.539-8.831-1.604c-0.511-0.212-0.906-0.304-1.323-0.304c-1.43,0-4.25,1.117-9.566,6.432
					c-9.135,9.139-30.916,18.423-45.916,19.886c-1.416,7.376-3.792,13.71-5.804,18.183h7.603c11.161,0,24.196,7.427,24.196,28.354
					C-752.776-208.438-756.168-205.045-760.338-205.045z M-835.188-445.707c-29.435,0-47.627,11.547-57.706,21.234
					c-10.941,10.517-14.938,21.148-14.978,21.254c-0.022,0.062-0.019,0.131,0.012,0.188c0.028,0.057,0.079,0.1,0.138,0.118
					c0.062,0.019,6.809,2.079,13.438,6.11c8.582,5.216,13.118,11.392,13.118,17.861c0,7.049-5.093,16.156-11.541,27.686
					c-9.679,17.309-21.725,38.848-21.725,63.796c0,19.355,7.22,38.198,20.33,53.061c12.166,13.79,27.971,22.023,42.28,22.023h91.482
					c0.129,0,0.234-0.104,0.234-0.233c0-13.166-6.306-21.025-16.868-21.025h-13.513l-3.208-5.437
					c1.883-3.408,6.451-12.58,8.175-24.091l3.536-3.12c12.953-0.309,35.541-9.526,43.944-17.931
					c5.933-5.934,10.48-8.578,14.748-8.578c1.386,0,2.74,0.283,4.139,0.865c1.661,0.691,3.686,1.042,6.016,1.042c0,0,0,0,0.001,0
					c6.335,0,12.937-2.579,14.907-3.895c0.39-0.261,0.849-0.637,0.849-0.976c-0.062-1.087-1.58-5.416-2.795-8.255
					c-1.484-3.468-3.731-7.831-6.005-8.932c-0.947-0.457-2.246-0.901-3.653-1.252l-0.526-6.938c6.076-2.537,8.452-7.823,8.476-7.877
					c-0.006-3.048-3.565-13.71-10.369-23.343c-6.421-9.092-17.813-20.409-35.626-22.725l-0.136-0.012l-2.984-2.337
					c-3.165-8.339-6.686-12.308-8.502-13.933l-1.223-2.73v-6.763c0-0.259-0.467-0.259-0.467,0v7.639l-0.475,1.804
					c-2.092,3.697-3.816,7.459-5.127,11.184l-7.067-0.595c-1.167-6.78-3.52-17.026-8.098-27.329
					C-792.878-432.719-811.285-445.707-835.188-445.707z M-764.448-212.841h-87.373c-14.176,0-29.849-8.174-41.927-21.866
					c-13.034-14.775-20.212-33.509-20.212-52.748c0-24.831,12.013-46.31,21.666-63.569c6.48-11.589,11.6-20.741,11.6-27.915
					c0-12.521-16.062-20.264-22.968-23.012l-1.884-5.119c2.296-4.34,6.462-10.872,13.265-17.338
					c14.541-13.821,33.75-20.829,57.094-20.829c23.977,0,41.714,12.479,52.719,37.095c6.675,14.93,8.704,29.909,9.266,35.656
					l-2.144,3.699c-9.894,4.447-24.934,14.361-33.317,23.972l-3.824,1.099c-4.712-1.428-9.595-2.153-14.512-2.153
					c-12.489,0-24.623,4.688-34.167,13.201c-19.834,17.687-24.576,47.314-12.683,79.253c0.056,0.151,0.213,0.152,0.219,0.152
					c0.184-0.054,0.258-0.211,0.22-0.314c-11.823-31.751-7.129-61.188,12.557-78.742c9.458-8.435,21.489-13.08,33.879-13.08
					c7.785,0,15.592,1.88,22.578,5.435c0.136,0.03,0.253,0.018,0.314-0.102c0.051-0.098-0.003-0.263-0.102-0.313
					c-0.24-0.123-0.472-0.232-0.703-0.344l-0.337-0.16l-1.048-5.842c10.028-10.42,24.32-18.534,31.184-21.688l5.19,3.471
					c-0.076,1.988,0.044,3.112,0.045,3.123c0.015,0.134,0.128,0.212,0.229,0.212c0.14-0.014,0.25-0.149,0.238-0.258
					c-0.049-0.479-1.013-10.997,6.111-25.493l6.222-0.579c2.629,3.513,6.303,10.147,8.874,21.813
					c0.03,0.135,0.152,0.184,0.223,0.184c0.164-0.03,0.257-0.178,0.234-0.285c-0.248-1.126-0.508-2.197-0.777-3.236l4.307-4.501
					c15.561,3.296,25.678,13.616,31.424,21.692c6.556,9.212,9.568,18.275,10.246,21.781l-0.475,2.609
					c-0.721,1.177-2.349,3.406-5.146,5.134c-5.585,3.447-13.363,3.359-22.384-0.308c-0.107-0.02-0.249-0.014-0.306,0.128
					c-0.048,0.118,0.01,0.255,0.13,0.304c1.543,0.626,3.062,1.158,4.513,1.578l0.812,6.693c-5.4,3.114-15.997,6.828-35.813,6.829
					c-0.002,0-0.004,0-0.007,0c-0.862,0-1.739-0.007-2.639-0.021c-0.13,0-0.235,0.102-0.237,0.227
					c-0.002,0.115,0.119,0.24,0.229,0.241c0.903,0.014,1.786,0.021,2.655,0.021c14.136,0,25.741-1.924,33.56-5.566
					c3.055-1.338,6.48-1.998,10.259-1.998c4.033,0,8.33,0.815,10.946,2.077l0.358,0.198c3.688,2.319,7.333,13.322,7.487,13.79
					l-2.033,4.508c-2.912,1.254-7.941,2.719-12.529,2.719c-2.225,0-4.186-0.347-5.827-1.029c-1.481-0.615-2.913-0.915-4.378-0.915
					c-5.542,0-10.701,4.413-15.017,8.729c-8.095,8.095-29.626,17.057-42.663,17.76l-3.862-3.718
					c0.093-5.778-0.836-10.984-2.76-15.47c-5.376-12.533-18.262-19.185-38.301-19.767c-0.111,0-0.237,0.086-0.241,0.229
					c-0.003,0.108,0.116,0.236,0.227,0.24c19.844,0.576,32.589,7.132,37.885,19.482c4.292,10.007,2.749,21.499,0.698,29.376
					c-2.34,8.996-6.348,17.153-9.281,21.247l-2.978,1.53h-6.435c-0.129,0-0.234,0.104-0.234,0.233c0,0.129,0.105,0.233,0.234,0.233
					h29.108c4.296,0,14.473,1.583,16.164,16.24L-764.448-212.841z M-897.08-407.087c9.265,4.323,23.713,13.429,23.713,28.147
					c0,9.084-5.53,18.973-12.532,31.492c-9.237,16.517-20.733,37.072-20.733,59.992c0,17.453,6.528,34.466,18.379,47.9
					c10.708,12.138,24.327,19.385,36.432,19.385h82.835c-1.36-3.805-3.998-5.667-7.987-5.667h-29.108
					c-4.17,0-7.562-3.393-7.562-7.562s3.392-7.562,7.562-7.562h4.46c4.616-7.561,12.911-27.688,6.8-41.937
					c-4.071-9.496-14.623-14.559-31.361-15.045c-2.019-0.058-3.894-0.9-5.28-2.37c-1.386-1.47-2.117-3.39-2.059-5.407
					c0.121-4.119,3.448-7.345,7.575-7.345l0.187,0.002c23.159,0.673,38.24,8.816,44.84,24.204c1.852,4.317,2.945,9.123,3.262,14.331
					c11.439-1.871,27.978-9.069,34.106-15.195c5.062-5.065,11.932-10.878,20.199-10.878c2.417,0,4.836,0.498,7.193,1.479
					c0.734,0.306,1.776,0.466,3.013,0.466c2.006,0,4.318-0.423,6.351-0.988c-1.185-2.915-2.527-5.568-3.247-6.48
					c-1.35-0.523-4.084-1.166-7.333-1.166c-2.721,0-5.226,0.467-7.242,1.349c-8.83,4.113-21.162,6.217-36.577,6.217
					c-0.906,0-1.827-0.007-2.769-0.021c-2.02-0.032-3.907-0.85-5.313-2.301c-1.406-1.451-2.162-3.362-2.129-5.382
					c0.062-4.104,3.454-7.441,7.561-7.441c0.979,0.014,1.818,0.021,2.642,0.021c0.002,0,0.005,0,0.007,0
					c11.674-0.001,19.656-1.361,24.966-2.919c-1.879-2.087-2.521-5.145-1.396-7.916c1.166-2.865,3.916-4.716,7.007-4.716
					c0.979,0,1.937,0.188,2.848,0.559c6.682,2.717,12.259,3.027,15.774,0.86c0.815-0.503,1.442-1.079,1.906-1.6
					c-0.96-3.354-3.589-10.326-8.651-17.44c-4.296-6.037-11.363-13.51-21.698-17.264c-0.132,1.121-0.516,2.205-1.141,3.183
					c-1.088,1.702-2.774,2.88-4.747,3.313c-0.535,0.118-1.085,0.179-1.631,0.179c-3.521,0-6.625-2.498-7.38-5.938
					c-1.232-5.592-2.699-9.818-4.133-12.986c-3.13,8.938-2.636,14.832-2.629,14.904c0.22,1.962-0.354,3.938-1.615,5.515
					c-1.262,1.578-3.063,2.569-5.071,2.792c-0.276,0.031-0.56,0.046-0.839,0.046c-3.281,0-6.109-2.093-7.142-5.081
					c-5.98,3.242-14.402,8.531-21.309,14.873c0.415,0.598,0.744,1.263,0.976,1.975c0.625,1.922,0.465,3.971-0.452,5.771
					c-1.296,2.548-3.88,4.132-6.742,4.132c-1.184,0-2.37-0.284-3.429-0.825c-6.043-3.076-12.521-4.636-19.251-4.636
					c-10.589,0-20.888,3.984-29.002,11.22c-17.345,15.467-21.294,41.903-10.566,70.716c0.705,1.892,0.63,3.945-0.21,5.783
					c-0.84,1.837-2.345,3.235-4.238,3.941c-0.849,0.315-1.736,0.476-2.639,0.476c-3.145,0-5.993-1.979-7.087-4.926
					c-12.986-34.875-7.501-67.503,14.674-87.278c10.888-9.71,24.754-15.058,39.043-15.058c4.857,0,9.685,0.615,14.383,1.834
					c8.604-9.148,21.776-18.02,31.831-22.961c-0.771-6.065-2.917-18.627-8.373-30.827c-9.718-21.737-25.205-32.758-46.029-32.758
					c-21.401,0-38.912,6.329-52.045,18.812C-891.704-414.847-894.893-410.581-897.08-407.087z"/>
			</g>
		</g>
	</g>
</g>
</svg>
